<mxfile host="app.diagrams.net" modified="2023-11-20T18:46:06.398Z" agent="Mozilla/5.0 (Windows NT 10.0; Win64; x64) AppleWebKit/537.36 (KHTML, like Gecko) Chrome/119.0.0.0 Safari/537.36" etag="6biLzxeQ9vGnIrRvrniY" version="22.1.3" type="device">
  <diagram name="Página-1" id="Jwm1XvXQHBYovP23mLBS">
    <mxGraphModel dx="2620" dy="2117" grid="1" gridSize="10" guides="1" tooltips="1" connect="1" arrows="1" fold="1" page="1" pageScale="1" pageWidth="827" pageHeight="1169" math="0" shadow="0">
      <root>
        <mxCell id="0" />
        <mxCell id="1" parent="0" />
        <mxCell id="qcFizUrvzzFb0Q1R6zQB-45" value="&lt;b&gt;Google &lt;/b&gt;Cloud Platform" style="fillColor=#F6F6F6;strokeColor=none;shadow=0;gradientColor=none;fontSize=14;align=left;spacing=10;fontColor=#717171;9E9E9E;verticalAlign=top;spacingTop=-4;fontStyle=0;spacingLeft=40;html=1;whiteSpace=wrap;" vertex="1" parent="1">
          <mxGeometry x="-70" y="-14" width="1500" height="753" as="geometry" />
        </mxCell>
        <mxCell id="qcFizUrvzzFb0Q1R6zQB-46" value="" style="shape=mxgraph.gcp2.google_cloud_platform;fillColor=#F6F6F6;strokeColor=none;shadow=0;gradientColor=none;" vertex="1" parent="qcFizUrvzzFb0Q1R6zQB-45">
          <mxGeometry width="23" height="20" relative="1" as="geometry">
            <mxPoint x="20" y="10" as="offset" />
          </mxGeometry>
        </mxCell>
        <mxCell id="qcFizUrvzzFb0Q1R6zQB-48" value="Cloud&#xa;Monitoring" style="sketch=0;html=1;verticalAlign=top;labelPosition=center;verticalLabelPosition=bottom;align=center;spacingTop=-6;fontSize=13;fontStyle=1;fontColor=#757575;shape=image;aspect=fixed;imageAspect=0;image=data:image/svg+xml,PHN2ZyB4bWxucz0iaHR0cDovL3d3dy53My5vcmcvMjAwMC9zdmciIHhtbG5zOnY9Imh0dHBzOi8vdmVjdGEuaW8vbmFubyIgd2lkdGg9IjIwIiBoZWlnaHQ9IjEzLjUyOTk5OTczMjk3MTE5MSIgdmlld0JveD0iLTIuOTMyMDk3ODk3ODEyMDE0ZS05IC01LjI1ODAxNTA0MTgzNzk1NmUtMTUgMjAgMTMuNTI5OTk5NzMyOTcxMTkxIj4mI3hhOwk8c3R5bGUgdHlwZT0idGV4dC9jc3MiPiYjeGE7CS5zdDB7ZmlsbDojNDI4NWY0O30mI3hhOwkuc3Qxe2ZpbGw6IzY2OWRmNjt9JiN4YTsJPC9zdHlsZT4mI3hhOwk8cGF0aCBjbGFzcz0ic3QxIiBkPSJNOC44MyAxMC41OGgyLjMzdjIuNjRIOC44M3oiLz4mI3hhOwk8cGF0aCBjbGFzcz0ic3QwIiBkPSJNMTYuNDggOC42MWEuNTYuNTYgMCAwIDEtLjQtLjE3TDEyIDQuMjEgOS4yNiA3LjFhLjU3LjU3IDAgMCAxLS43Ni4wNUw2LjQyIDUuNDdsLTIuMiAyLjkyYS41Ni41NiAwIDAgMS0uNDUuMjJIMHYxLjcxYS43NS43NSAwIDAgMCAuNzQuNzVoMTguNTJhLjc1Ljc1IDAgMCAwIC43NC0uNzVWOC42MXoiLz4mI3hhOwk8cGF0aCBjbGFzcz0ic3QxIiBkPSJNMy41IDcuNWwyLjM4LTMuMTZhLjU1LjU1IDAgMCAxIC4zNy0uMjIuNjMuNjMgMCAwIDEgLjQyLjEybDIuMTIgMS43MiAyLjgtMi45NGEuNTQuNTQgMCAwIDEgLjQtLjE3aDBhLjU0LjU0IDAgMCAxIC40LjE3bDQuMzMgNC40OEgyMFYuNzRhLjc0Ljc0IDAgMCAwLS43NC0uNzRILjc0QS43NC43NCAwIDAgMCAwIC43NHY2LjgxeiIvPiYjeGE7CTxyZWN0IGNsYXNzPSJzdDAiIHg9IjYuNjciIHk9IjEyLjkyIiB3aWR0aD0iNi42NyIgaGVpZ2h0PSIuNjEiIHJ4PSIuMyIvPiYjeGE7PC9zdmc+;" vertex="1" parent="qcFizUrvzzFb0Q1R6zQB-45">
          <mxGeometry x="1397.446097047069" y="24.635846372688476" width="81.00826025072875" height="55.93849251978047" as="geometry" />
        </mxCell>
        <mxCell id="qcFizUrvzzFb0Q1R6zQB-42" value="" style="image;sketch=0;aspect=fixed;html=1;points=[];align=center;fontSize=12;image=img/lib/mscae/App_Configuration.svg;" vertex="1" parent="qcFizUrvzzFb0Q1R6zQB-45">
          <mxGeometry x="82.79220779220779" y="115.88193456614508" width="48.701298701298704" height="47.72727272727273" as="geometry" />
        </mxCell>
        <mxCell id="qcFizUrvzzFb0Q1R6zQB-43" value="&lt;b&gt;&lt;font style=&quot;font-size: 15px;&quot;&gt;API&lt;/font&gt;&lt;/b&gt;" style="text;html=1;strokeColor=none;fillColor=none;align=center;verticalAlign=middle;whiteSpace=wrap;rounded=0;" vertex="1" parent="qcFizUrvzzFb0Q1R6zQB-45">
          <mxGeometry x="77.92207792207792" y="164.86486486486487" width="58.44155844155844" height="32.13371266002845" as="geometry" />
        </mxCell>
        <mxCell id="qcFizUrvzzFb0Q1R6zQB-52" value="&lt;div style=&quot;font-size: 14px;&quot;&gt;Observações:&lt;/div&gt;&lt;div style=&quot;font-size: 14px;&quot;&gt;1 - Cloud Monitoring, é o serviço GCP que nos permite observar o status dos processos sendo executados na cloud. Na infraestrutura apresentada, está sendo utilizado para que pessoas de interesse possam acompanhar qualquer etapa do processo;&lt;/div&gt;&lt;div style=&quot;font-size: 14px;&quot;&gt;2 - Cloud Scheduler será responsável por agendar e publicar a mensagem no Pub/Sub, que dará inicio ao processo de ingestão dos dados;&lt;/div&gt;&lt;div style=&quot;font-size: 14px;&quot;&gt;3 - O Cloud Storage(bucket) será o local todos os dados serão agrupados, a partir desse ponto em comum os dados podem ser carregados em qualquer outro serviço GCP:&amp;nbsp; BigQuery, BigTable e CloudSQL&lt;/div&gt;&lt;div style=&quot;font-size: 14px;&quot;&gt;4 - O disparo final de notificação deverá ser o ultimo passo, nesse momento pessoas de interesse podem ser notificadas sobre uma nova carga de dados.&lt;/div&gt;" style="text;html=1;strokeColor=none;fillColor=none;align=left;verticalAlign=top;whiteSpace=wrap;rounded=0;fontSize=14;" vertex="1" parent="qcFizUrvzzFb0Q1R6zQB-45">
          <mxGeometry x="77.92" y="594" width="1322.08" height="116" as="geometry" />
        </mxCell>
        <mxCell id="qcFizUrvzzFb0Q1R6zQB-36" value="" style="rounded=0;whiteSpace=wrap;html=1;fillColor=#CCE5FF;opacity=30;strokeColor=none;" vertex="1" parent="1">
          <mxGeometry x="850" y="144" width="470" height="365" as="geometry" />
        </mxCell>
        <mxCell id="qcFizUrvzzFb0Q1R6zQB-28" value="" style="rounded=0;whiteSpace=wrap;html=1;fillColor=#CCE5FF;opacity=30;strokeColor=none;" vertex="1" parent="1">
          <mxGeometry x="370" y="209" width="430" height="320" as="geometry" />
        </mxCell>
        <mxCell id="qcFizUrvzzFb0Q1R6zQB-3" style="edgeStyle=orthogonalEdgeStyle;rounded=0;orthogonalLoop=1;jettySize=auto;html=1;" edge="1" parent="1">
          <mxGeometry relative="1" as="geometry">
            <mxPoint x="178.56999999999994" y="280" as="targetPoint" />
            <mxPoint x="179" y="190" as="sourcePoint" />
          </mxGeometry>
        </mxCell>
        <mxCell id="qcFizUrvzzFb0Q1R6zQB-1" value="Cloud&#xa;Scheduler" style="sketch=0;html=1;verticalAlign=top;labelPosition=center;verticalLabelPosition=bottom;align=center;spacingTop=-6;fontSize=11;fontStyle=1;fontColor=#999999;shape=image;aspect=fixed;imageAspect=0;image=data:image/svg+xml,PHN2ZyB4bWxucz0iaHR0cDovL3d3dy53My5vcmcvMjAwMC9zdmciIHhtbG5zOnY9Imh0dHBzOi8vdmVjdGEuaW8vbmFubyIgd2lkdGg9IjM2MC4zMDM3NjY4NjA4MzYzIiBoZWlnaHQ9IjM3OC4wNTExNTgwNzc0MDg4IiB2aWV3Qm94PSItMC4wMDAxNjI0MjExNDM2MTM3NTU3IC0wLjAwMDEwMDAwNTk0OTIwNzExNTkyIDk1LjMzMDI2MTIzMDQ2ODc1IDEwMC4wMjYxMDAxNTg2OTE0Ij4mI3hhOzxzdHlsZSB0eXBlPSJ0ZXh0L2NzcyI+JiN4YTsJLnN0MHtmaWxsOiM0Mjg1ZjQ7fSYjeGE7CS5zdDF7ZmlsbDojYWVjYmZhO30mI3hhOwkuc3Qye2ZpbGw6IzY2OWRmNjt9JiN4YTs8L3N0eWxlPiYjeGE7CTxwYXRoIGNsYXNzPSJzdDAiIGQ9Ik03OS45NzEgNzcuNzE1bC03LjM1OSA3LjQ4OCA4LjYzOSA4LjQ5IDcuMzU5LTcuNDg4em0tNjUuMDk2LjA2MWwtOC42NDEgOC40OTIgNy4zNjEgNy40ODggOC42MzktOC40OXoiLz4mI3hhOwk8cGF0aCBjbGFzcz0ic3QxIiBkPSJNNzkuNTUzLjIyMWE1LjI1IDUuMjUgMCAwIDAtMy42NiA4Ljk4NEw4Ni4zODkgMTkuNThhNS4yNSA1LjI1IDAgMCAwIDguOTQxLTMuNzY1IDUuMjUgNS4yNSAwIDAgMC0xLjU2LTMuNzA0TDgzLjI3NSAxLjczOEE1LjI1IDUuMjUgMCAwIDAgNzkuNTUzLjIyMXpNMTUuOTE2IDBhNS4yNSA1LjI1IDAgMCAwLTMuNzIzIDEuNTE2TDEuNjk5IDExLjg5MWE1LjI1IDUuMjUgMCAwIDAtLjA0MyA3LjQyNCA1LjI1IDUuMjUgMCAwIDAgNy40MjQuMDQzTDE5LjU3NiA4Ljk4MkE1LjI1IDUuMjUgMCAwIDAgMTUuOTE2IDB6Ii8+JiN4YTsJPHBhdGggY2xhc3M9InN0MCIgZD0iTTQ4LjEzOCAyNi4yNGMxMy4zNDcgMCAyNS40MzIgMTEuMTM2IDI1LjMxIDI2LjQ4MSAwIDE1LjExLTEyLjI2NyAyNS42NzMtMjUuMTg5IDI1LjY3My0xMS4xNDkgMC0xOC4zMTctNS4xNzEtMjEuOTYtMTAuNzM4bDIxLjgzOS0xNS4wOTd6Ii8+JiN4YTsJPHBhdGggY2xhc3M9InN0MiIgZD0iTTgxLjI1IDkzLjY5M2w0LjY2NCA0LjU4NmE1LjI1IDUuMjUgMCAxIDAgNy4zNjEtNy40OWwtNC42NjYtNC41ODR6TTYuMjM0IDg2LjI2OEwxLjU3IDkwLjg1MWE1LjI1IDUuMjUgMCAwIDAtLjA2NSA3LjQyNCA1LjI1IDUuMjUgMCAwIDAgNy40MjQuMDY0bDQuNjY2LTQuNTg0ek00Ny4zNzEgNS41NzhDMjEuMzQ5IDUuNTc4LjE0NiAyNi43NzkuMTQ2IDUyLjgwMXMyMS4yMDMgNDcuMjI1IDQ3LjIyNSA0Ny4yMjUgNDcuMjI1LTIxLjIwMyA0Ny4yMjUtNDcuMjI1UzczLjM5MyA1LjU3OCA0Ny4zNzEgNS41Nzh6bTAgMTBhMzcuMTUgMzcuMTUgMCAwIDEgMzcuMjI1IDM3LjIyM2MwIDIwLjYxNy0xNi42MDcgMzcuMjI1LTM3LjIyNSAzNy4yMjVTMTAuMTQ2IDczLjQxOCAxMC4xNDYgNTIuODAxYTM3LjE1IDM3LjE1IDAgMCAxIDM3LjIyNS0zNy4yMjN6Ii8+JiN4YTs8L3N2Zz4=;" vertex="1" parent="1">
          <mxGeometry x="150" y="100" width="57.14" height="60" as="geometry" />
        </mxCell>
        <mxCell id="qcFizUrvzzFb0Q1R6zQB-29" style="edgeStyle=orthogonalEdgeStyle;rounded=0;orthogonalLoop=1;jettySize=auto;html=1;" edge="1" parent="1" source="qcFizUrvzzFb0Q1R6zQB-2" target="qcFizUrvzzFb0Q1R6zQB-4">
          <mxGeometry relative="1" as="geometry">
            <mxPoint x="330" y="374" as="targetPoint" />
          </mxGeometry>
        </mxCell>
        <mxCell id="qcFizUrvzzFb0Q1R6zQB-2" value="Pub/Sub" style="sketch=0;html=1;verticalAlign=top;labelPosition=center;verticalLabelPosition=bottom;align=center;spacingTop=-6;fontSize=11;fontStyle=1;fontColor=#999999;shape=image;aspect=fixed;imageAspect=0;image=data:image/svg+xml,PHN2ZyB4bWxucz0iaHR0cDovL3d3dy53My5vcmcvMjAwMC9zdmciIHhtbG5zOnY9Imh0dHBzOi8vdmVjdGEuaW8vbmFubyIgd2lkdGg9IjE4LjMxOTk5OTY5NDgyNDIyIiBoZWlnaHQ9IjIwLjAwMDAwMTkwNzM0ODYzMyIgdmlld0JveD0iMCAwIDE4LjMxOTk5OTY5NDgyNDIyIDIwLjAwMDAwMTkwNzM0ODYzMyI+JiN4YTsJPHN0eWxlIHR5cGU9InRleHQvY3NzIj4mI3hhOwkuc3Qwe2ZpbGw6IzY2OWRmNjt9JiN4YTsJLnN0MXtmaWxsOiM0Mjg1ZjQ7fSYjeGE7CS5zdDJ7ZmlsbDojYWVjYmZhO30mI3hhOwk8L3N0eWxlPiYjeGE7CTxkZWZzPiYjeGE7CQk8ZmlsdGVyIGlkPSJBIiB4PSI0LjY0IiB5PSI0LjE5IiB3aWR0aD0iMTQuNzMiIGhlaWdodD0iMTIuNzYiIGZpbHRlclVuaXRzPSJ1c2VyU3BhY2VPblVzZSIgY29sb3ItaW50ZXJwb2xhdGlvbi1maWx0ZXJzPSJzUkdCIj4mI3hhOwkJCTxmZUZsb29kIGZsb29kLWNvbG9yPSIjZmZmIi8+JiN4YTsJCQk8ZmVCbGVuZCBpbj0iU291cmNlR3JhcGhpYyIvPiYjeGE7CQk8L2ZpbHRlcj4mI3hhOwkJPG1hc2sgaWQ9IkIiIHg9IjQuNjQiIHk9IjQuMTkiIHdpZHRoPSIxNC43MyIgaGVpZ2h0PSIxMi43NiIgbWFza1VuaXRzPSJ1c2VyU3BhY2VPblVzZSI+JiN4YTsJCQk8Y2lyY2xlIGN4PSIxMiIgY3k9IjEyLjIzIiByPSIzLjU4IiBmaWx0ZXI9InVybCgjQSkiLz4mI3hhOwkJPC9tYXNrPiYjeGE7CTwvZGVmcz4mI3hhOwk8ZyBjbGFzcz0ic3QwIj4mI3hhOwkJPGNpcmNsZSBjeD0iMTYuMTMiIGN5PSI2LjIxIiByPSIxLjcyIi8+JiN4YTsJCTxjaXJjbGUgY3g9IjIuMTkiIGN5PSI2LjIxIiByPSIxLjcyIi8+JiN4YTsJCTxjaXJjbGUgY3g9IjkuMTYiIGN5PSIxOC4yOCIgcj0iMS43MiIvPiYjeGE7CTwvZz4mI3hhOwk8ZyBtYXNrPSJ1cmwoI0IpIiB0cmFuc2Zvcm09InRyYW5zbGF0ZSgtMi44NCAtMikiPiYjeGE7CQk8cGF0aCB0cmFuc2Zvcm09Im1hdHJpeCguNSAtLjg3IC44NyAuNSAtNC41OSAyMC41MykiIGQ9Ik0xNC42OSAxMC4yMmgxLjU5djguMDRoLTEuNTl6IiBjbGFzcz0ic3QxIi8+JiN4YTsJCTxwYXRoIHRyYW5zZm9ybT0icm90YXRlKDMzMCA4LjUyMyAxNC4yNDQpIiBkPSJNNC40OSAxMy40NWg4LjA0djEuNTlINC40OXoiIGNsYXNzPSJzdDEiLz4mI3hhOwkJPHBhdGggZD0iTTExLjIgNC4xOWgxLjU5djguMDRIMTEuMnoiIGNsYXNzPSJzdDEiLz4mI3hhOwk8L2c+JiN4YTsJPGcgY2xhc3M9InN0MiI+JiN4YTsJCTxjaXJjbGUgY3g9IjkuMTYiIGN5PSIxMC4yMyIgcj0iMi43OCIvPiYjeGE7CQk8Y2lyY2xlIGN4PSIyLjE5IiBjeT0iMTQuMjUiIHI9IjIuMTkiLz4mI3hhOwkJPGNpcmNsZSBjeD0iMTYuMTMiIGN5PSIxNC4yNSIgcj0iMi4xOSIvPiYjeGE7CQk8Y2lyY2xlIGN4PSI5LjE2IiBjeT0iMi4xOSIgcj0iMi4xOSIvPiYjeGE7CTwvZz4mI3hhOzwvc3ZnPg==;" vertex="1" parent="1">
          <mxGeometry x="150" y="290" width="54.29" height="60" as="geometry" />
        </mxCell>
        <mxCell id="qcFizUrvzzFb0Q1R6zQB-4" value="Cloud&#xa;Functions" style="sketch=0;html=1;verticalAlign=top;labelPosition=center;verticalLabelPosition=bottom;align=center;spacingTop=-6;fontSize=12;fontStyle=1;fontColor=#757575;shape=image;aspect=fixed;imageAspect=0;image=data:image/svg+xml,PHN2ZyB4bWxucz0iaHR0cDovL3d3dy53My5vcmcvMjAwMC9zdmciIHhtbG5zOnY9Imh0dHBzOi8vdmVjdGEuaW8vbmFubyIgd2lkdGg9IjIwIiBoZWlnaHQ9IjE5Ljk4OTk5OTc3MTExODE2NCIgdmlld0JveD0iMCAwIDIwIDE5Ljk4OTk5OTc3MTExODE2NCI+JiN4YTsJPHN0eWxlIHR5cGU9InRleHQvY3NzIj4mI3hhOwkuc3Qwe2ZpbGw6IzQyODVmNDt9JiN4YTsJLnN0MXtmaWxsOiM2NjlkZjY7fSYjeGE7CS5zdDJ7ZmlsbDojYWVjYmZhO30mI3hhOwk8L3N0eWxlPiYjeGE7CTxwYXRoIGNsYXNzPSJzdDEiIGQ9Ik0zIDMuOTlMMCA2LjQydjcuMTNsMyAyLjQ0eiIvPiYjeGE7CTxwYXRoIGNsYXNzPSJzdDAiIGQ9Ik0zIDMuOTlsLTMgNCAzLTJ6bS0zIDhsMyA0di0yeiIvPiYjeGE7CTxwYXRoIGNsYXNzPSJzdDIiIGQ9Ik0wIDE1Ljk5bDQgNCAyLTItNi02em0uMDEtOEw1Ljk5IDJsLTItMkwwIDMuOTl6Ii8+JiN4YTsJPHBhdGggY2xhc3M9InN0MSIgZD0iTTE3IDE2bDMtMi40MlY2LjQ0TDE3IDR6Ii8+JiN4YTsJPHBhdGggY2xhc3M9InN0MCIgZD0iTTE3IDE2bDMtNC0zIDJ6bTMtOGwtMy00djJ6Ii8+JiN4YTsJPGcgY2xhc3M9InN0MiI+JiN4YTsJCTxwYXRoIGQ9Ik0yMCA0bC00LTQtMiAyIDYgNnptLS4wMSA4bC01Ljk4IDUuOTkgMiAyTDIwIDE2eiIvPiYjeGE7CQk8Y2lyY2xlIGN4PSI2IiBjeT0iOS45OSIgcj0iMSIvPiYjeGE7CQk8Y2lyY2xlIGN4PSIxMCIgY3k9IjkuOTkiIHI9IjEiLz4mI3hhOwkJPGNpcmNsZSBjeD0iMTMuOTkiIGN5PSI5Ljk5IiByPSIxIi8+JiN4YTsJPC9nPiYjeGE7PC9zdmc+;" vertex="1" parent="1">
          <mxGeometry x="446.09" y="289" width="74.12" height="60" as="geometry" />
        </mxCell>
        <mxCell id="qcFizUrvzzFb0Q1R6zQB-6" value="Cloud&#xa;Storage" style="sketch=0;html=1;verticalAlign=top;labelPosition=center;verticalLabelPosition=bottom;align=center;spacingTop=-6;fontSize=12;fontStyle=1;fontColor=#757575;shape=image;aspect=fixed;imageAspect=0;image=data:image/svg+xml,PHN2ZyB4bWxucz0iaHR0cDovL3d3dy53My5vcmcvMjAwMC9zdmciIHhtbG5zOnY9Imh0dHBzOi8vdmVjdGEuaW8vbmFubyIgd2lkdGg9IjIwIiBoZWlnaHQ9IjE2IiB2aWV3Qm94PSIwIDAgMjAgMTYiPiYjeGE7CTxzdHlsZSB0eXBlPSJ0ZXh0L2NzcyI+JiN4YTsJLnN0MHtmaWxsOiM0Mjg1ZjQ7fSYjeGE7CS5zdDF7ZmlsbDojNjY5ZGY2O30mI3hhOwkuc3Qye2ZpbGw6I2FlY2JmYTt9JiN4YTsJLnN0M3tmaWxsOiNmZmY7fSYjeGE7CTwvc3R5bGU+JiN4YTsJPHBhdGggY2xhc3M9InN0MiIgZD0iTTAgMGgyMHY3SDB6Ii8+JiN4YTsJPHBhdGggY2xhc3M9InN0MSIgZD0iTTE4IDBoMnY3aC0yeiIvPiYjeGE7CTxwYXRoIGNsYXNzPSJzdDAiIGQ9Ik0xOCA3bDItN2gtMnoiLz4mI3hhOwk8cGF0aCBjbGFzcz0ic3QxIiBkPSJNMCAwaDJ2N0gweiIvPiYjeGE7CTxnIGNsYXNzPSJzdDMiPiYjeGE7CQk8cGF0aCBkPSJNNCAzaDZ2MUg0eiIvPiYjeGE7CQk8cmVjdCB4PSIxMyIgeT0iMiIgd2lkdGg9IjMiIGhlaWdodD0iMyIgcng9IjEuNSIvPiYjeGE7CTwvZz4mI3hhOwk8cGF0aCBjbGFzcz0ic3QyIiBkPSJNMCA5aDIwdjdIMHoiLz4mI3hhOwk8cGF0aCBjbGFzcz0ic3QxIiBkPSJNMTggOWgydjdoLTJ6Ii8+JiN4YTsJPHBhdGggY2xhc3M9InN0MCIgZD0iTTE4IDE2bDItN2gtMnoiLz4mI3hhOwk8cGF0aCBjbGFzcz0ic3QxIiBkPSJNMCA5aDJ2N0gweiIvPiYjeGE7CTxnIGNsYXNzPSJzdDMiPiYjeGE7CQk8cGF0aCBkPSJNNCAxMmg2djFINHoiLz4mI3hhOwkJPHJlY3QgeD0iMTMiIHk9IjExIiB3aWR0aD0iMyIgaGVpZ2h0PSIzIiByeD0iMS41Ii8+JiN4YTsJPC9nPiYjeGE7PC9zdmc+;" vertex="1" parent="1">
          <mxGeometry x="652" y="293" width="74.12" height="60" as="geometry" />
        </mxCell>
        <mxCell id="qcFizUrvzzFb0Q1R6zQB-15" style="edgeStyle=orthogonalEdgeStyle;rounded=0;orthogonalLoop=1;jettySize=auto;html=1;entryX=0;entryY=0.5;entryDx=0;entryDy=0;" edge="1" parent="1" source="qcFizUrvzzFb0Q1R6zQB-9" target="qcFizUrvzzFb0Q1R6zQB-14">
          <mxGeometry relative="1" as="geometry" />
        </mxCell>
        <mxCell id="qcFizUrvzzFb0Q1R6zQB-9" value="Cloud&#xa;Functions" style="sketch=0;html=1;verticalAlign=top;labelPosition=center;verticalLabelPosition=bottom;align=center;spacingTop=-6;fontSize=12;fontStyle=1;fontColor=#757575;shape=image;aspect=fixed;imageAspect=0;image=data:image/svg+xml,PHN2ZyB4bWxucz0iaHR0cDovL3d3dy53My5vcmcvMjAwMC9zdmciIHhtbG5zOnY9Imh0dHBzOi8vdmVjdGEuaW8vbmFubyIgd2lkdGg9IjIwIiBoZWlnaHQ9IjE5Ljk4OTk5OTc3MTExODE2NCIgdmlld0JveD0iMCAwIDIwIDE5Ljk4OTk5OTc3MTExODE2NCI+JiN4YTsJPHN0eWxlIHR5cGU9InRleHQvY3NzIj4mI3hhOwkuc3Qwe2ZpbGw6IzQyODVmNDt9JiN4YTsJLnN0MXtmaWxsOiM2NjlkZjY7fSYjeGE7CS5zdDJ7ZmlsbDojYWVjYmZhO30mI3hhOwk8L3N0eWxlPiYjeGE7CTxwYXRoIGNsYXNzPSJzdDEiIGQ9Ik0zIDMuOTlMMCA2LjQydjcuMTNsMyAyLjQ0eiIvPiYjeGE7CTxwYXRoIGNsYXNzPSJzdDAiIGQ9Ik0zIDMuOTlsLTMgNCAzLTJ6bS0zIDhsMyA0di0yeiIvPiYjeGE7CTxwYXRoIGNsYXNzPSJzdDIiIGQ9Ik0wIDE1Ljk5bDQgNCAyLTItNi02em0uMDEtOEw1Ljk5IDJsLTItMkwwIDMuOTl6Ii8+JiN4YTsJPHBhdGggY2xhc3M9InN0MSIgZD0iTTE3IDE2bDMtMi40MlY2LjQ0TDE3IDR6Ii8+JiN4YTsJPHBhdGggY2xhc3M9InN0MCIgZD0iTTE3IDE2bDMtNC0zIDJ6bTMtOGwtMy00djJ6Ii8+JiN4YTsJPGcgY2xhc3M9InN0MiI+JiN4YTsJCTxwYXRoIGQ9Ik0yMCA0bC00LTQtMiAyIDYgNnptLS4wMSA4bC01Ljk4IDUuOTkgMiAyTDIwIDE2eiIvPiYjeGE7CQk8Y2lyY2xlIGN4PSI2IiBjeT0iOS45OSIgcj0iMSIvPiYjeGE7CQk8Y2lyY2xlIGN4PSIxMCIgY3k9IjkuOTkiIHI9IjEiLz4mI3hhOwkJPGNpcmNsZSBjeD0iMTMuOTkiIGN5PSI5Ljk5IiByPSIxIi8+JiN4YTsJPC9nPiYjeGE7PC9zdmc+;" vertex="1" parent="1">
          <mxGeometry x="908" y="291" width="74.12" height="60" as="geometry" />
        </mxCell>
        <mxCell id="qcFizUrvzzFb0Q1R6zQB-12" value="&lt;font style=&quot;font-size: 13px;&quot;&gt;Código Python que executará a consulta a API e gerará um arquivo no bucket.&lt;/font&gt;" style="text;html=1;strokeColor=none;fillColor=#DBDBDB;align=center;verticalAlign=middle;whiteSpace=wrap;rounded=0;fontColor=#333333;" vertex="1" parent="1">
          <mxGeometry x="394.18" y="379" width="177.94" height="100" as="geometry" />
        </mxCell>
        <mxCell id="qcFizUrvzzFb0Q1R6zQB-13" value="&lt;font style=&quot;font-size: 13px;&quot;&gt;Sempre que o processo anterior criar um novo arquivo no bucket, uma Cloud Function responsável por inserir os dados no BigTable será executada, após finalizar esse processo uma notificação será&amp;nbsp; enviada para um chat no Gmail&lt;/font&gt;" style="text;html=1;strokeColor=none;fillColor=#DBDBDB;align=center;verticalAlign=middle;whiteSpace=wrap;rounded=0;fontColor=#333333;" vertex="1" parent="1">
          <mxGeometry x="868" y="389" width="290" height="90" as="geometry" />
        </mxCell>
        <mxCell id="qcFizUrvzzFb0Q1R6zQB-14" value="Cloud&#xa;Bigtable" style="sketch=0;html=1;verticalAlign=top;labelPosition=center;verticalLabelPosition=bottom;align=center;spacingTop=-6;fontSize=12;fontStyle=1;fontColor=#757575;shape=image;aspect=fixed;imageAspect=0;image=data:image/svg+xml,PHN2ZyB4bWxucz0iaHR0cDovL3d3dy53My5vcmcvMjAwMC9zdmciIHhtbG5zOnY9Imh0dHBzOi8vdmVjdGEuaW8vbmFubyIgd2lkdGg9IjE3Ljk1Njk3Nzg0NDIzODI4IiBoZWlnaHQ9IjIwLjAwOTI1NjM2MjkxNTA0IiB2aWV3Qm94PSItMC4wMDA0MjE5NjUxMTY0MDIxMzQzIDAuMDAwMDc0Njk5NTIxMDY0NzU4MyAxNy45NTY5Nzc4NDQyMzgyOCAyMC4wMDkyNTYzNjI5MTUwNCI+JiN4YTsJPHN0eWxlPiYjeGE7CQkuc3Qwe2ZpbGw6IzY2OWRmNjt9JiN4YTsJCS5zdDF7ZmlsbDojYWVjYmZhO30mI3hhOwkJLnN0MntmaWxsOiM0Mjg1ZjQ7fSYjeGE7CTwvc3R5bGU+JiN4YTsJPGcgZmlsbC1ydWxlPSJldmVub2RkIj4mI3hhOwkJPHBhdGggZD0iTTEzLjE5NiA0LjQ0N2wtNC4yMi0yLjUxYTIuODYgMi44NiAwIDAgMS0xLjI1LTEuNzFjMCAwIC4xNi0uMzIuMzgtLjJsNS4yNSAzLjFjLjYzLjM3LjI0IDIgLjI0IDJhLjc3Ljc3IDAgMCAwLS40LS42OHoiIGNsYXNzPSJzdDAiLz4mI3hhOwkJPHBhdGggZD0iTTE0LjQ2NiAxMC42ODdhLjM1LjM1IDAgMCAxLS4xNi4zM2wtMSAuNjh2LTcuOTVjMC0uMjcuMTctLjU2LS4wNi0uN2wuOTIuNjhhLjczLjczIDAgMCAxIC4zNS42NXoiIGNsYXNzPSJzdDEiLz4mI3hhOwkJPHBhdGggZD0iTTguOTc2IDExLjU5N2EuMzYuMzYgMCAwIDEtLjItLjA2bC0zLjQ2LTIuMDZ2LjlsMy42NiAyLjE4LjI5LS41N3MtLjIyLS4zOS0uMjktLjM5em0uMiAxLjhhLjM2LjM2IDAgMCAxLS40IDBsLTMuNDYtMi4wNnYuNjZhLjQyLjQyIDAgMCAwIC4xOS4zNWwzLjI4IDJhLjM3LjM3IDAgMCAwIC4zOCAwIDIgMiAwIDAgMCAuMi0uNTJsLS4xOS0uMzl6IiBjbGFzcz0ic3QwIi8+JiN4YTsJCTxwYXRoIGQ9Ik04Ljk3NiAxMC43MjdsMy42Ni0yLjE4di0uNDNhLjM5LjM5IDAgMCAwLS4xOS0uMzRsLTMuMjgtMmEuMzcuMzcgMCAwIDAtLjM4IDBsLTMuMjggMmEuNDEuNDEgMCAwIDAtLjE5LjM0di40M3oiIGNsYXNzPSJzdDEiLz4mI3hhOwkJPHBhdGggZD0iTTguOTc2IDkuODI3bC0zLjQ3LTIuMDVhLjQxLjQxIDAgMCAwLS4xOS4zNHYuNDNsMy42NiAyLjE4LjI4LS41NnoiIGNsYXNzPSJzdDAiLz4mI3hhOwkJPGcgY2xhc3M9InN0MiI+JiN4YTsJCQk8cGF0aCBkPSJNOC45NzYgMTEuNTk3djFsMy42Ni0yLjE4di0uOWwtMy40NiAyLjAyYS42NS42NSAwIDAgMS0uMi4wNnptLjIgMS44YS4zNi4zNiAwIDAgMS0uMi4wNnYuOWEuNS41IDAgMCAwIC4yMS0uMDVsMy4yOC0yYS4zOS4zOSAwIDAgMCAuMTktLjM1di0uNjZ6Ii8+JiN4YTsJCQk8cGF0aCBkPSJNMTIuNDQ2IDcuNzc3bC0zLjQ3IDIuMDV2LjlsMy42Ni0yLjE4di0uNDNhLjM5LjM5IDAgMCAwLS4xOS0uMzR6Ii8+JiN4YTsJCTwvZz4mI3hhOwkJPHBhdGggZD0iTTQuNzU2IDE1LjUyN2w0LjE1IDIuNDdhMi43MiAyLjcyIDAgMCAxIDEuMjggMS44LjE4LjE4IDAgMCAxLS4yOC4xOGwtNS40NS0zLjIzYy0uNTMtLjMyLS4wNy0xLjg4LS4wNy0xLjg4YS43Ny43NyAwIDAgMCAuMzcuNjZ6IiBjbGFzcz0ic3QwIi8+JiN4YTsJCTxwYXRoIGQ9Ik0zLjQ4NiAxNS43Mjd2LTYuNTZhLjQxLjQxIDAgMCAxIC4xOS0uMzNsMS0uNTl2Ny45MWMwIC4yNyAwIC42OS4yMS44M2wtMS4wNi0uNjZhLjc1Ljc1IDAgMCAxLS4zNC0uNnoiIGNsYXNzPSJzdDEiLz4mI3hhOwkJPHBhdGggZD0iTTcuMTM2IDMuNDU3YS43NS43NSAwIDAgMC0uNzQgMGwtNC4yIDIuNTRhMi42MyAyLjYzIDAgMCAxLTIuMDguMjYuMjMuMjMgMCAwIDEgMC0uNGMuMTgtLjA5IDYuMzItMy43NCA2LjMyLTMuNzQuMjMtLjE0Ljc0IDEuMzkuNzQgMS4zOXoiIGNsYXNzPSJzdDAiLz4mI3hhOwkJPHBhdGggZD0iTTcuMTI2IDIuMDc3bDUuMzIgMy4xNWEuMzcuMzcgMCAwIDEgLjIuMzF2MS4xOGwtNi42Ny0zLjk2YS43NS43NSAwIDAgMC0uNzQgMGwxLjE4LS42OWEuNzEuNzEgMCAwIDEgLjczIDB6IiBjbGFzcz0ic3QxIi8+JiN4YTsJCTxwYXRoIGQ9Ik0xMC43OTYgMTYuNDg3YS43My43MyAwIDAgMCAuNzQgMGw0LjItMi40OWEyLjYzIDIuNjMgMCAwIDEgMi4xLS4yNS4yMS4yMSAwIDAgMSAwIC4zOGwtNi4zMyAzLjc1Yy0uMjIuMTQtLjc0LTEuNC0uNzQtMS40eiIgY2xhc3M9InN0MCIvPiYjeGE7CQk8cGF0aCBkPSJNNS40ODYgMTQuNzQ3YS41Ni41NiAwIDAgMS0uMTctLjMzdi0xLjE2bDYuNjYgMy45M2EuNjkuNjkgMCAwIDAgLjczIDBsLTEuMTguN2EuNy43IDAgMCAxLS43NCAweiIgY2xhc3M9InN0MSIvPiYjeGE7CQk8cGF0aCBkPSJNMy4yMzYgNy44MDdhLjc2Ljc2IDAgMCAwLS4zNy42NXY1YTIuNzUgMi43NSAwIDAgMS0uODcgMiAuMTguMTggMCAwIDEtLjMtLjEzdi03LjU2YzAtLjI4IDEuNTQgMCAxLjU0IDB6IiBjbGFzcz0ic3QwIi8+JiN4YTsJCTxwYXRoIGQ9Ik02Ljc0NiA0LjUxN2EuMzQuMzQgMCAwIDEgLjM2IDBsMSAuNTktNi4wOCAzLjU2YS43Ny43NyAwIDAgMC0uMzcuNjZ2LTEuMzlhLjcyLjcyIDAgMCAxIC4zOC0uNjR6IiBjbGFzcz0ic3QxIi8+JiN4YTsJCTxwYXRoIGQ9Ik0xNS4xNDYgMTEuNDM3di01YTIuODEgMi44MSAwIDAgMSAuODQtMmMwIDAgLjMzLS4xMS4zMS4yMXMwIDcuMzcgMCA3LjM3Yy0uMzEuMzctMS42MSAwLTEuNjEgMGEuODEuODEgMCAwIDAgLjQ2LS41OHoiIGNsYXNzPSJzdDAiLz4mI3hhOwkJPHBhdGggZD0iTTE1Ljk3NiAxMi42MDdsLTQuNzQgMi44NWEuMzUuMzUgMCAwIDEtLjM3IDBsLTEtLjU3IDYuMTEtMy42N2EuNzcuNzcgMCAwIDAgLjM3LS42NnYxLjQ0Yy0uMDIuMjMtLjM3LjYxLS4zNy42MXoiIGNsYXNzPSJzdDEiLz4mI3hhOwk8L2c+JiN4YTs8L3N2Zz4=;" vertex="1" parent="1">
          <mxGeometry x="1138" y="153" width="72.39" height="80" as="geometry" />
        </mxCell>
        <mxCell id="qcFizUrvzzFb0Q1R6zQB-16" value="Job agendado diariamente envia um mensagem ao Pub/Sub" style="text;html=1;strokeColor=none;fillColor=#DBDBDB;align=center;verticalAlign=middle;whiteSpace=wrap;rounded=0;fontSize=13;fontColor=#333333;" vertex="1" parent="1">
          <mxGeometry x="182" y="197" width="131.91" height="70" as="geometry" />
        </mxCell>
        <mxCell id="qcFizUrvzzFb0Q1R6zQB-17" value="" style="shape=image;verticalLabelPosition=bottom;labelBackgroundColor=default;verticalAlign=top;aspect=fixed;imageAspect=0;image=data:image/png,iVBORw0KGgoAAAANSUhEUgAAAgAAAAIACAYAAAD0eNT6AAAACXBIWXMAAAsTAAALEwEAmpwYAAAAAXNSR0IArs4c6QAAAARnQU1BAACxjwv8YQUAABHbSURBVHgB7d1dj13VecDxZ5+ZscGBZqBpUiWVPEkv2l5UcS56nbHU8HIFVgIJbaXanwCjNOol9mVFUMwnwEgNTQORzRUGKjHkqooa4bSVQqoWxmmRIK1gUr9ge+ac1bPHuAKCjT3nda/n95OOPeYGWRrP899r7b12BAAAAAAAAAAAAAAAAAAAAAAAAAAAAAAAAAAAAAAAAAAAAAAAAAAAAAAAAAAAAAAAAAAAAAAAAAAAAAAAAAAAAAAAAAAAAAAAAAAAAAAAAAAAAAAAAAAAAAAAAAAAAAAAAAAAAAAAAAAAQCJNQAd86/nDK03ZtW9hsewdDAZfHH7jfjqAdEqJM72F3rv9rebM1mJZf+aux04HOyIAmEvtwF9cWLqvRLm/ibKvlGY5AD6iacrGoPTWmmhOLg2aV47f+zfrwQ0RAMyNgycOL1++bfHhpsRqtB+Am9XEWpTe8aULl587fuDYRnBNAoCZuzr4e6UcdqUPjEdZb2Ngqb941KrAxxMAzIzBD0xeWS+95vjTX/vu0eBDBAAz8a3nv7260Isnh9+CKwEwcWW9P4hDP7j38bVgmwBgqtqr/s09i48OvzwcAFNWenHEasAVAoCpOfj8X69s9vonhl/uC4DZOb00WDiQ/d4AAcBUHHzxO/s2y+CEJX9gPpT1pcHi/swRIACYuHb4b8XgZTf6AfMldwQIACbK8AfmW94I6AVMyPae/3DZ3/AH5lezstnbern9eRXJCAAmYvtu/+E/Knv+wPwbRsBC/8lIRgAwEVce9WtWAqALSqz++Ut/9b1IxD0AjN2fPf+dg02vpKtpoPv6g7I/y2FBAoCxuvKsv6V/oKvK+tKF/lcyvEjIFgBjNRz+Rwx/oLualct7FlKcVGoFgLF5/6S/NwKg2zaWLmx9sfZVACsAjM2Vq3+AzlvOsApgBYCxcPUPVKb6VQArAIzFVmwdDIB6LF+6dfFgVEwAMBalF38ZABXp9eK+qJgAYGR/8fy3V935D1SnxOq3nj+8EpUSAIxs0MT9AVChplms9uebAGBkTTRfDoAKNRGrUSkBwEgOvnx4efgvZDUAKtQ08dWolABgJFsXF/YFQL2Wa70PQAAwktIUAQBUbdfiYpXbnAKAkZTSLAdAxTb78cWokABgJCWalQCoWBPNSlRIADCSXhN7A6Bqg09HhQQAACQkAAAgIQEAAAkJAABISAAAQEICAAASEgAAkJAAAICEBAAAJCQAACAhAQAACQkAAEhIAABAQgIAABISAIymaVYCgM4RAACQkAAAgIQEAAAkJAAAICEBAAAJCQAASEgAAEBCAgAAEhIAAJCQAACAhAQAACQkAAAgIQEAAAkJAABISAAAQEICAAASEgAAkJAAAICEBAAAJCQAACAhAQAACQkAAEhIAABAQgIAABISAACQkAAAgIQEAAAkJAAAICEBAAAJCQBG0wyWA4DOEQCMpjQCAKCDBAAAJCQAACAhAQAACQkAAEhIAABAQgIAABISAACQkAAAgIQEAAAkJAAAICEBAAAJCQAASEgAAEBCi8F4nbhnJXbk4kYcWNsIAJgCAbAT7ZDfjNXolX3DP+2NEvuiKcsRzXL0S+zM7ohn746u+f5PXgjIbmlxMW7bdWvsWliKO/bcHp/7rTtjefj7bbtvDZhXAuBGPXPP6nDI3z8c9vcNh/zKhzZPmv//BUhoc2sr3t06u/3122ffidfePrP99aeGAfC52++ML33m89tRAPNEAFzPidXlGOx6eDj074/Yvto354Ebdv7Se/H6pTfj9f95czsG/uhze+MLd3zWygBzQQB8nKuDvx+Ht5f1AUbUxsA//fK17c+XPvOF+OMv/L4QYKYEwEf9/V33x6D53vCqfyUAJqBdEWi3CtoVgT/43b0BsyAArmqv+vu7Twy/Wo2d3scHcIOurgj8/O0z8ad/+CdWA5g65wC02hv8BrtfjXb4A0xRGwLP/ezH8Yu3zgRMkwB49u6HoykvW/IHZqldDfiXN/8jYFpyB8CP7np0+OuxAJgD//zmv8eP/+3VuNzfCpi0vAHQDv/SHAmAOfKfG7+Kf/j5T0QAE5czAAx/YI69e+Fs/PTMawGTlC8A2j1/wx+Yc+2jgj/9pQhgcnIFwJUX9djzBzrhtbfOeDqAickTANun+5WXA6BD2hsDz116L2Dc8gTAYPejHvUDuqa9GfAfX//XgHHLEQDt0n9pz/UH6J722GBbAYxbjgCw9A90XLsV4NFAxqn+APjh1w5a+ge6rh3+v3hrPWBc6g+AXvNwAFSgfSrAKgDjUncAtC/5iWZfAFTAKgDjVHcAlMHBAKjIa24GZEzqDYD2uf9e3BcAFWlXAd7+33cCRlVvAPR3rQ6X/5cDoDL/9e6vAkZVbwAM4v4AqFD7xkAYVb0BsNB8NQAqdP7Se9sfGEWdAdDu/3v2H6jYW2fdB8Bo6gyArVs8+gdUbeP82YBRVLoFUAQAUDVbAIyqzgBoLP8DdTt3WQAwmjoDYFA8/gdUzZHAjKrOAOg1ewOgYrYAGFWO1wEDAB8iAAAgIQEAAAkJAABISAAAQEICAAASEgAAkJAAAICEBAAAJCQAACAhAQAACQkAAEhIAABAQgIAABISAACQkAAAgIQEAAAkJAAAICEBAAAJCQAASEgAAEBCAgAAEhIAAJCQAACAhAQAACQkAAAgIQEAAAkJAABISAAAQEICAAASEgAAkJAAAICEKg2AshwAwDXVGQClEQAAcB22AAAgIQHAaJYWAoDuEQAAkJAAAICEBAAAJCQAACAhAQAACQkAAEhIAABAQgIAABISAACQkAAAgIQEAAAkJAAAICEBAAAJCQAASEgAAEBCAgAAEhIAAJCQAACAhAQAACQkAAAgIQEAAAkJAABISAAAQEICAAASEgAAkJAAAICEBAAAJCQAACAhAQAACQkAAEhIAABAQgIAABISAACQkAAAgIQEAAAkJAAAICEBAAAJCQAASEgAAEBCAgAAEhIAAJCQAACAhAQAACQkAAAgIQEAAAkJAABISAAAQEICAAASEgAAkJAAAICEBAAAJCQAACAhAQAACQkAAEhIAABAQgIAABKqMwCashwAwDVVugLQCAAAuA5bAACQkAAAgIQEAAAkJAAAICEBAAAJCQAASEgAAEBCAgAAEhIAAJCQAACAhAQAACQkAAAgIQEAAAkJAABISAAAQEICAAASEgCMZmkhAKpW4kxUSAAwmqXFAKhZaZqNqJAAYDRWAIDKDX/MvREVEgCMRgAAlXuvNLYA4Dd8ancAVGzjmbseOx0VEgCMpl0B6DUBUKNS4pWolABgdLffGgA1appyIiolABjd7bYBgDr1B30rAHBNe3bbBgDq08TaD+49th6VEgCMbmH4bbS8JwCqUsrxqJgAYDxuvyUAalGirC9d6D8XFRMAjEe7DbBnVwDUoCmxdvzAsSpPALxKADA+v3N7AHRde/XfL/2jUTkBwPhYBQDq8FTNN/9dJQAYr8/f4YkAoLPaq/+n7378SCQgABiv9mTAz9oKALqpN4hDkYQAYPzuuM1WANA5w6v/o3977+NrkYQAYDLarQBvCgQ6okSczrL0f5UAYDLa4f97d7ofAJh77b7/YLB1IJIRAEzOLUvDlYDlAJhXV4Z/f3+Gu/4/SgAwWe2bAkUAMIcyD/+WAGDyPr0nYu9v2w4A5kb24d8SAExHe0jQlz7rxkBg9kqsZR/+rcWAaWmH/97PRPz32YhfXwiAaSuleeLpex47HAgApqyNgPaegE/tuhICm/0AmLR2yb895Of79353LdgmAJiN9r6AdlvAagAwSU3ZaPrxxPmL/WMnK3+7380SAMzO1dWA9i2CQgAYp/cH/zmD/5oEALP3wRA4+17EO+dtDQA7U2Kt6ZWT5873nzL4r08AMD/aELjztiufi5sRFy4Ng+Di8PfLAfCx2iv90luLZrC21e8/l/3O/pshAJhP7SmC7aeNgVYbBJtbw9+Hn8Egoj8ISK+U45FMGcSve4vxxvBK/8zWoH/awN+5Ok9mefbuEgC1+8YLTtdixxwEBAAJCQAASEgAAEBCAgAAEhIAAJCQAACAhAQAACQkAAAgIQEAAAkJAABISAAAQEICAAASqi8ATqwuBwBwXfUFwMVbBAAAfAJbAACQkAAAgIQEAAAkJAAAICEBAAAJCQAASEgAAEBCAgAAEhIAAJCQAACAhAQAACQkAAAgIQEAAAkJAABISAAAQEICAAASEgAAkJAAAICEBAAAJCQAACAhAQAACQkAAEhIAABAQgIAABISAACQkAAAgIQEAAAkJAAAICEBAAAJCQAASEgAAEBCAgAAEhIAAJCQAACAhAQAACQkAAAgIQEAAAkJAABISAAAQEICAAASEgAAkJAAAICEBAAAJCQAACAhAQAACQkAgG7aCBiBAADoohLrASMQAABd1FgBYDQCAKCbfhYwAgEA0EW2ABiRAADoojJYCxiBAADono148KXTASMQAABdU+KVgBEJAICuaZoTASMSAADdshFnLz4XMCIBANAlTZyMQ2vOAGBkAgCgSy43RwPGQAAAdEUTx+OhU+sBY1BfANzSXw6AGrn6Z4zqC4CtBQEA1MfVP2O2GADMt/bY301X/4yXewAA5l3THHH1z7gJAID59kR849RTAWNmCwBgXrVL/+cuHQmYACsAAPOoHf5bzX6H/jApAgBg3lwd/vb9mSABADBPDH+mRAAAzAvDnykSAADzYS3OXfqK4c+0eAoAYKbKRpTmaDzwwrGAKRIAALOzFpu9Q676mQUBADBt7V7/oDwS33zxZMCMCACA6VmLaI7HA072Y/YEAMBEDff4o3lquM9/cjj41wLmhAAAGKd2eb83vNIvcToGg1fiwZdOB8whAcDOtT/gSvNEQGa9wUaU3sbwp+l6HHAzH90hANiZdvifu+SccoCOchAQN+/KaWUHDH+A7hIA3BxHlQJUQQBw4wx/gGoIAG6M4Q9QFQHAJzP8AaojALg+wx+gSgKAazP8AaolAPh4hj9A1QQAv8nwB6ieAOAjyobhD1A/AcAHDIf/oBj+AAkIAN73/vD35jKAFAQAYfgD5CMA0jP8ATISANk1vUcMf4B8BEBmTXMovn7qeACQjgDIyvAHSE0AZGT4A6QnALIp8YjhD4AAyKQ0R+OBF44FAOkJgCy2h/+pIwEAIQByMPwB+AgBUDvDH4CPIQBqZvgDcA0CoFaGPwDXIQBqZPgD8AkEQG0MfwBugACoieEPwA0SALUYNE8Z/gDcKAFQg3b4P3jqYADADRIAXWf4A7ADAqDLDH8AdkgAdNdJwx+AnVoMuqfE6Th36VAAwA5ZAeiaK8N/fxxa2wgA2CEB0CWGPwBjIgC6wvAHYIwEQBeUWDf8ARgnATDv2uG/1Rj+AIyVAJhnV4f/Q6fWAwDGSADMK8MfgAkSAPPI8AdgwuoLgGawHF1m+AMwBfUFwKB0NwAMfwCmxBbAvDD8AZgiATAPDH8ApkwAzJrhD8AMeBvgTJWNKOVAPPTSegDAFFkBmJnh8B+U/fHgS6cDAKZMAMyE4Q/AbAmAqTP8AZg9ATBt/Thk+AMwawJgmprmUHzzxZMBADMmAKalHf5fP3U8AGAOVPgugIX1mDeGPwBzpr4A2Ir1mCeGPwBzqL4A2D5Rr2zEPCjNUcMfgHlU5z0Ag3guZq0d/g+cOhIAMIfqDICmdzxmyfAHYM41Uatn73p3+Ndbjmkz/AHogHofA2wH8Sz+n4Y/AB1Q7wpA69m7Xh3+FffFNBj+AHRI3QcBbfYOTOWJAMMfgI6pOwDaRwKb3iMxSYY/AB1U9xbAVT+652CU8mSMm+EPQEflCIDWD7+2b7gacGL4N16JcSjxSDzwwrEAgA7K8zKg9hW8W83+4eR+KkazFoPBVwx/ALoszwrAB/3dPSuxNDgyXML/6k2sCKy9v+S/FgDQcTkD4IOeuWc1YrAaTfPl4Z+Wh0v7K9v/vYn17U+/eSXOXzwZh9bm4/0CAAAAAAAAAAAAAAAAAAAAAAAAAAAAAAAAAAAAAAAAAAAAAAAAAAAAAAAAAAAAAAAAAAAAAAAAAAAAAAAAAAAAAAAAAAAAAAAAADfh/wCjPoOAWdGDKwAAAABJRU5ErkJggg==;" vertex="1" parent="1">
          <mxGeometry x="1143.2" y="292" width="62" height="62" as="geometry" />
        </mxCell>
        <mxCell id="qcFizUrvzzFb0Q1R6zQB-30" value="Ingestão dos dados" style="text;html=1;strokeColor=none;fillColor=none;align=center;verticalAlign=middle;whiteSpace=wrap;rounded=0;fontSize=15;fontStyle=1" vertex="1" parent="1">
          <mxGeometry x="380" y="219" width="167.5" height="30" as="geometry" />
        </mxCell>
        <mxCell id="qcFizUrvzzFb0Q1R6zQB-31" style="edgeStyle=orthogonalEdgeStyle;rounded=0;orthogonalLoop=1;jettySize=auto;html=1;" edge="1" parent="1" source="qcFizUrvzzFb0Q1R6zQB-4">
          <mxGeometry relative="1" as="geometry">
            <mxPoint x="650" y="319" as="targetPoint" />
          </mxGeometry>
        </mxCell>
        <mxCell id="qcFizUrvzzFb0Q1R6zQB-35" value="DADOS&lt;br style=&quot;font-size: 12px;&quot;&gt;BRUTOS" style="text;html=1;strokeColor=#d6b656;fillColor=#fff2cc;align=center;verticalAlign=middle;whiteSpace=wrap;rounded=0;fontSize=12;fontStyle=1" vertex="1" parent="1">
          <mxGeometry x="659.06" y="249" width="60" height="30" as="geometry" />
        </mxCell>
        <mxCell id="qcFizUrvzzFb0Q1R6zQB-38" style="edgeStyle=orthogonalEdgeStyle;rounded=0;orthogonalLoop=1;jettySize=auto;html=1;entryX=0.027;entryY=0.533;entryDx=0;entryDy=0;entryPerimeter=0;exitX=1.023;exitY=0.501;exitDx=0;exitDy=0;exitPerimeter=0;" edge="1" parent="1" source="qcFizUrvzzFb0Q1R6zQB-6">
          <mxGeometry relative="1" as="geometry">
            <mxPoint x="740" y="323" as="sourcePoint" />
            <mxPoint x="905.0012400000003" y="322.97999999999996" as="targetPoint" />
          </mxGeometry>
        </mxCell>
        <mxCell id="qcFizUrvzzFb0Q1R6zQB-39" value="Carga de dados&amp;nbsp;" style="text;html=1;strokeColor=none;fillColor=none;align=center;verticalAlign=middle;whiteSpace=wrap;rounded=0;fontSize=15;fontStyle=1" vertex="1" parent="1">
          <mxGeometry x="861.31" y="153" width="167.5" height="30" as="geometry" />
        </mxCell>
        <mxCell id="qcFizUrvzzFb0Q1R6zQB-49" style="edgeStyle=orthogonalEdgeStyle;rounded=0;orthogonalLoop=1;jettySize=auto;html=1;" edge="1" parent="1" source="qcFizUrvzzFb0Q1R6zQB-42">
          <mxGeometry relative="1" as="geometry">
            <mxPoint x="140" y="125" as="targetPoint" />
          </mxGeometry>
        </mxCell>
        <mxCell id="qcFizUrvzzFb0Q1R6zQB-50" style="edgeStyle=orthogonalEdgeStyle;rounded=0;orthogonalLoop=1;jettySize=auto;html=1;entryX=0.11;entryY=0.387;entryDx=0;entryDy=0;entryPerimeter=0;" edge="1" parent="1">
          <mxGeometry relative="1" as="geometry">
            <mxPoint x="990" y="321" as="sourcePoint" />
            <mxPoint x="1145.02" y="320.9939999999999" as="targetPoint" />
          </mxGeometry>
        </mxCell>
      </root>
    </mxGraphModel>
  </diagram>
</mxfile>
